<mxfile host="app.diagrams.net" modified="2023-03-03T13:41:40.523Z" agent="5.0 (Windows NT 10.0; Win64; x64) AppleWebKit/537.36 (KHTML, like Gecko) Chrome/110.0.0.0 Safari/537.36" etag="NJmkF3WIFjtQ2rcF2TSv" version="21.0.2" type="github">
  <diagram id="C5RBs43oDa-KdzZeNtuy" name="Page-1">
    <mxGraphModel dx="1050" dy="577" grid="1" gridSize="10" guides="1" tooltips="1" connect="1" arrows="1" fold="1" page="1" pageScale="1" pageWidth="827" pageHeight="1169" math="0" shadow="0">
      <root>
        <mxCell id="WIyWlLk6GJQsqaUBKTNV-0" />
        <mxCell id="WIyWlLk6GJQsqaUBKTNV-1" parent="WIyWlLk6GJQsqaUBKTNV-0" />
        <mxCell id="WIyWlLk6GJQsqaUBKTNV-2" value="" style="rounded=0;html=1;jettySize=auto;orthogonalLoop=1;fontSize=11;endArrow=block;endFill=0;endSize=8;strokeWidth=1;shadow=0;labelBackgroundColor=none;edgeStyle=orthogonalEdgeStyle;" parent="WIyWlLk6GJQsqaUBKTNV-1" edge="1">
          <mxGeometry relative="1" as="geometry">
            <mxPoint x="140" y="170" as="sourcePoint" />
            <mxPoint x="140" y="210" as="targetPoint" />
          </mxGeometry>
        </mxCell>
        <mxCell id="uf2t4lImcSSHD_paHzv8-1" value="" style="edgeStyle=orthogonalEdgeStyle;rounded=0;orthogonalLoop=1;jettySize=auto;html=1;" edge="1" parent="WIyWlLk6GJQsqaUBKTNV-1">
          <mxGeometry relative="1" as="geometry">
            <mxPoint x="140" y="90" as="sourcePoint" />
            <mxPoint x="140" y="130" as="targetPoint" />
          </mxGeometry>
        </mxCell>
        <mxCell id="uf2t4lImcSSHD_paHzv8-2" value="Start" style="rounded=1;whiteSpace=wrap;html=1;" vertex="1" parent="WIyWlLk6GJQsqaUBKTNV-1">
          <mxGeometry x="80" y="30" width="120" height="60" as="geometry" />
        </mxCell>
        <mxCell id="uf2t4lImcSSHD_paHzv8-6" value="" style="edgeStyle=orthogonalEdgeStyle;rounded=0;orthogonalLoop=1;jettySize=auto;html=1;" edge="1" parent="WIyWlLk6GJQsqaUBKTNV-1" source="uf2t4lImcSSHD_paHzv8-3" target="uf2t4lImcSSHD_paHzv8-5">
          <mxGeometry relative="1" as="geometry" />
        </mxCell>
        <mxCell id="uf2t4lImcSSHD_paHzv8-3" value="Input file name" style="shape=parallelogram;perimeter=parallelogramPerimeter;whiteSpace=wrap;html=1;fixedSize=1;" vertex="1" parent="WIyWlLk6GJQsqaUBKTNV-1">
          <mxGeometry x="80" y="120" width="120" height="60" as="geometry" />
        </mxCell>
        <mxCell id="uf2t4lImcSSHD_paHzv8-8" value="" style="edgeStyle=orthogonalEdgeStyle;rounded=0;orthogonalLoop=1;jettySize=auto;html=1;" edge="1" parent="WIyWlLk6GJQsqaUBKTNV-1" source="uf2t4lImcSSHD_paHzv8-5" target="uf2t4lImcSSHD_paHzv8-7">
          <mxGeometry relative="1" as="geometry" />
        </mxCell>
        <mxCell id="uf2t4lImcSSHD_paHzv8-15" style="edgeStyle=orthogonalEdgeStyle;rounded=1;orthogonalLoop=1;jettySize=auto;html=1;entryX=0;entryY=0.5;entryDx=0;entryDy=0;endArrow=none;dashed=1;dashPattern=1 3;strokeWidth=2;" edge="1" parent="WIyWlLk6GJQsqaUBKTNV-1" source="uf2t4lImcSSHD_paHzv8-5" target="uf2t4lImcSSHD_paHzv8-14">
          <mxGeometry relative="1" as="geometry" />
        </mxCell>
        <mxCell id="uf2t4lImcSSHD_paHzv8-5" value="&lt;font size=&quot;3&quot;&gt;to_json(file name)&lt;/font&gt;" style="whiteSpace=wrap;html=1;shape=process;" vertex="1" parent="WIyWlLk6GJQsqaUBKTNV-1">
          <mxGeometry x="80" y="260" width="120" height="50" as="geometry" />
        </mxCell>
        <mxCell id="uf2t4lImcSSHD_paHzv8-7" value="&lt;font size=&quot;3&quot;&gt;end&lt;/font&gt;" style="whiteSpace=wrap;html=1;" vertex="1" parent="WIyWlLk6GJQsqaUBKTNV-1">
          <mxGeometry x="80" y="385" width="120" height="60" as="geometry" />
        </mxCell>
        <mxCell id="uf2t4lImcSSHD_paHzv8-17" value="" style="edgeStyle=orthogonalEdgeStyle;rounded=0;orthogonalLoop=1;jettySize=auto;html=1;" edge="1" parent="WIyWlLk6GJQsqaUBKTNV-1" source="uf2t4lImcSSHD_paHzv8-14" target="uf2t4lImcSSHD_paHzv8-16">
          <mxGeometry relative="1" as="geometry" />
        </mxCell>
        <mxCell id="uf2t4lImcSSHD_paHzv8-14" value="to_json(fiel name)" style="rounded=1;whiteSpace=wrap;html=1;" vertex="1" parent="WIyWlLk6GJQsqaUBKTNV-1">
          <mxGeometry x="460" y="255" width="120" height="60" as="geometry" />
        </mxCell>
        <mxCell id="uf2t4lImcSSHD_paHzv8-19" style="edgeStyle=orthogonalEdgeStyle;rounded=0;orthogonalLoop=1;jettySize=auto;html=1;" edge="1" parent="WIyWlLk6GJQsqaUBKTNV-1" source="uf2t4lImcSSHD_paHzv8-16">
          <mxGeometry relative="1" as="geometry">
            <mxPoint x="680" y="520" as="targetPoint" />
          </mxGeometry>
        </mxCell>
        <mxCell id="uf2t4lImcSSHD_paHzv8-21" style="edgeStyle=orthogonalEdgeStyle;rounded=0;orthogonalLoop=1;jettySize=auto;html=1;exitX=0;exitY=0.5;exitDx=0;exitDy=0;" edge="1" parent="WIyWlLk6GJQsqaUBKTNV-1" source="uf2t4lImcSSHD_paHzv8-16">
          <mxGeometry relative="1" as="geometry">
            <mxPoint x="360" y="520" as="targetPoint" />
          </mxGeometry>
        </mxCell>
        <mxCell id="uf2t4lImcSSHD_paHzv8-16" value="is file&amp;nbsp; pdf or image" style="rhombus;whiteSpace=wrap;html=1;rounded=1;" vertex="1" parent="WIyWlLk6GJQsqaUBKTNV-1">
          <mxGeometry x="470" y="385" width="100" height="105" as="geometry" />
        </mxCell>
        <mxCell id="uf2t4lImcSSHD_paHzv8-22" value="image" style="text;html=1;strokeColor=none;fillColor=none;align=center;verticalAlign=middle;whiteSpace=wrap;rounded=0;" vertex="1" parent="WIyWlLk6GJQsqaUBKTNV-1">
          <mxGeometry x="381" y="415" width="66" height="30" as="geometry" />
        </mxCell>
        <mxCell id="uf2t4lImcSSHD_paHzv8-23" value="pdf" style="text;html=1;strokeColor=none;fillColor=none;align=center;verticalAlign=middle;whiteSpace=wrap;rounded=0;" vertex="1" parent="WIyWlLk6GJQsqaUBKTNV-1">
          <mxGeometry x="600" y="410" width="60" height="30" as="geometry" />
        </mxCell>
        <mxCell id="uf2t4lImcSSHD_paHzv8-33" style="edgeStyle=orthogonalEdgeStyle;rounded=0;orthogonalLoop=1;jettySize=auto;html=1;exitX=0.25;exitY=1;exitDx=0;exitDy=0;" edge="1" parent="WIyWlLk6GJQsqaUBKTNV-1" source="uf2t4lImcSSHD_paHzv8-24">
          <mxGeometry relative="1" as="geometry">
            <mxPoint x="520" y="700" as="targetPoint" />
            <Array as="points">
              <mxPoint x="360" y="585" />
              <mxPoint x="360" y="643" />
              <mxPoint x="520" y="643" />
            </Array>
          </mxGeometry>
        </mxCell>
        <mxCell id="uf2t4lImcSSHD_paHzv8-55" style="edgeStyle=orthogonalEdgeStyle;rounded=1;orthogonalLoop=1;jettySize=auto;html=1;endArrow=none;dashed=1;dashPattern=1 3;strokeWidth=2;" edge="1" parent="WIyWlLk6GJQsqaUBKTNV-1" source="uf2t4lImcSSHD_paHzv8-24">
          <mxGeometry relative="1" as="geometry">
            <mxPoint x="160" y="640" as="targetPoint" />
          </mxGeometry>
        </mxCell>
        <mxCell id="uf2t4lImcSSHD_paHzv8-24" value="get_details_img(file paths)" style="shape=process;whiteSpace=wrap;html=1;backgroundOutline=1;" vertex="1" parent="WIyWlLk6GJQsqaUBKTNV-1">
          <mxGeometry x="270" y="525" width="150" height="60" as="geometry" />
        </mxCell>
        <mxCell id="uf2t4lImcSSHD_paHzv8-34" style="edgeStyle=orthogonalEdgeStyle;rounded=0;orthogonalLoop=1;jettySize=auto;html=1;exitX=0.5;exitY=1;exitDx=0;exitDy=0;" edge="1" parent="WIyWlLk6GJQsqaUBKTNV-1" source="uf2t4lImcSSHD_paHzv8-31">
          <mxGeometry relative="1" as="geometry">
            <mxPoint x="520" y="700" as="targetPoint" />
          </mxGeometry>
        </mxCell>
        <mxCell id="uf2t4lImcSSHD_paHzv8-58" style="edgeStyle=orthogonalEdgeStyle;rounded=1;orthogonalLoop=1;jettySize=auto;html=1;endArrow=none;dashed=1;dashPattern=1 3;strokeWidth=2;entryX=0.433;entryY=-0.027;entryDx=0;entryDy=0;entryPerimeter=0;" edge="1" parent="WIyWlLk6GJQsqaUBKTNV-1" source="uf2t4lImcSSHD_paHzv8-31" target="uf2t4lImcSSHD_paHzv8-59">
          <mxGeometry relative="1" as="geometry">
            <mxPoint x="610" y="1120" as="targetPoint" />
            <Array as="points">
              <mxPoint x="800" y="555" />
              <mxPoint x="800" y="1120" />
              <mxPoint x="602" y="1120" />
            </Array>
          </mxGeometry>
        </mxCell>
        <mxCell id="uf2t4lImcSSHD_paHzv8-31" value="get_details_pdf(path name)" style="shape=process;whiteSpace=wrap;html=1;backgroundOutline=1;" vertex="1" parent="WIyWlLk6GJQsqaUBKTNV-1">
          <mxGeometry x="620" y="525" width="160" height="60" as="geometry" />
        </mxCell>
        <mxCell id="uf2t4lImcSSHD_paHzv8-37" style="edgeStyle=orthogonalEdgeStyle;rounded=0;orthogonalLoop=1;jettySize=auto;html=1;" edge="1" parent="WIyWlLk6GJQsqaUBKTNV-1" source="uf2t4lImcSSHD_paHzv8-36">
          <mxGeometry relative="1" as="geometry">
            <mxPoint x="720" y="800" as="targetPoint" />
          </mxGeometry>
        </mxCell>
        <mxCell id="uf2t4lImcSSHD_paHzv8-40" style="edgeStyle=orthogonalEdgeStyle;rounded=0;orthogonalLoop=1;jettySize=auto;html=1;exitX=0.5;exitY=1;exitDx=0;exitDy=0;" edge="1" parent="WIyWlLk6GJQsqaUBKTNV-1" source="uf2t4lImcSSHD_paHzv8-36">
          <mxGeometry relative="1" as="geometry">
            <mxPoint x="520" y="900" as="targetPoint" />
          </mxGeometry>
        </mxCell>
        <mxCell id="uf2t4lImcSSHD_paHzv8-36" value="is the info already in json file?" style="rhombus;whiteSpace=wrap;html=1;" vertex="1" parent="WIyWlLk6GJQsqaUBKTNV-1">
          <mxGeometry x="420" y="700" width="200" height="80" as="geometry" />
        </mxCell>
        <mxCell id="uf2t4lImcSSHD_paHzv8-38" value="yes" style="text;html=1;strokeColor=none;fillColor=none;align=center;verticalAlign=middle;whiteSpace=wrap;rounded=0;" vertex="1" parent="WIyWlLk6GJQsqaUBKTNV-1">
          <mxGeometry x="640" y="700" width="60" height="30" as="geometry" />
        </mxCell>
        <mxCell id="uf2t4lImcSSHD_paHzv8-41" style="edgeStyle=orthogonalEdgeStyle;rounded=0;orthogonalLoop=1;jettySize=auto;html=1;exitX=0;exitY=0.5;exitDx=0;exitDy=0;" edge="1" parent="WIyWlLk6GJQsqaUBKTNV-1" source="uf2t4lImcSSHD_paHzv8-39">
          <mxGeometry relative="1" as="geometry">
            <mxPoint x="520" y="840" as="targetPoint" />
          </mxGeometry>
        </mxCell>
        <mxCell id="uf2t4lImcSSHD_paHzv8-50" style="edgeStyle=orthogonalEdgeStyle;rounded=0;orthogonalLoop=1;jettySize=auto;html=1;" edge="1" parent="WIyWlLk6GJQsqaUBKTNV-1" source="uf2t4lImcSSHD_paHzv8-39">
          <mxGeometry relative="1" as="geometry">
            <mxPoint x="520" y="990" as="targetPoint" />
            <Array as="points">
              <mxPoint x="720" y="980" />
              <mxPoint x="720" y="980" />
            </Array>
          </mxGeometry>
        </mxCell>
        <mxCell id="uf2t4lImcSSHD_paHzv8-39" value="update that info?" style="rhombus;whiteSpace=wrap;html=1;" vertex="1" parent="WIyWlLk6GJQsqaUBKTNV-1">
          <mxGeometry x="680" y="800" width="80" height="80" as="geometry" />
        </mxCell>
        <mxCell id="uf2t4lImcSSHD_paHzv8-42" value="yes" style="text;html=1;strokeColor=none;fillColor=none;align=center;verticalAlign=middle;whiteSpace=wrap;rounded=0;" vertex="1" parent="WIyWlLk6GJQsqaUBKTNV-1">
          <mxGeometry x="600" y="810" width="60" height="30" as="geometry" />
        </mxCell>
        <mxCell id="uf2t4lImcSSHD_paHzv8-44" style="edgeStyle=orthogonalEdgeStyle;rounded=0;orthogonalLoop=1;jettySize=auto;html=1;exitX=0.5;exitY=1;exitDx=0;exitDy=0;" edge="1" parent="WIyWlLk6GJQsqaUBKTNV-1" source="uf2t4lImcSSHD_paHzv8-43">
          <mxGeometry relative="1" as="geometry">
            <mxPoint x="500" y="820" as="targetPoint" />
          </mxGeometry>
        </mxCell>
        <mxCell id="uf2t4lImcSSHD_paHzv8-43" value="no" style="text;html=1;strokeColor=none;fillColor=none;align=center;verticalAlign=middle;whiteSpace=wrap;rounded=0;" vertex="1" parent="WIyWlLk6GJQsqaUBKTNV-1">
          <mxGeometry x="470" y="790" width="60" height="30" as="geometry" />
        </mxCell>
        <mxCell id="uf2t4lImcSSHD_paHzv8-46" style="edgeStyle=orthogonalEdgeStyle;rounded=0;orthogonalLoop=1;jettySize=auto;html=1;" edge="1" parent="WIyWlLk6GJQsqaUBKTNV-1" source="uf2t4lImcSSHD_paHzv8-45">
          <mxGeometry relative="1" as="geometry">
            <mxPoint x="520" y="1010" as="targetPoint" />
          </mxGeometry>
        </mxCell>
        <mxCell id="uf2t4lImcSSHD_paHzv8-45" value="dump info into to json file" style="rounded=0;whiteSpace=wrap;html=1;" vertex="1" parent="WIyWlLk6GJQsqaUBKTNV-1">
          <mxGeometry x="460" y="900" width="120" height="60" as="geometry" />
        </mxCell>
        <mxCell id="uf2t4lImcSSHD_paHzv8-47" value="return&amp;nbsp;" style="rounded=1;whiteSpace=wrap;html=1;" vertex="1" parent="WIyWlLk6GJQsqaUBKTNV-1">
          <mxGeometry x="460" y="1020" width="120" height="60" as="geometry" />
        </mxCell>
        <mxCell id="uf2t4lImcSSHD_paHzv8-53" value="no" style="text;html=1;strokeColor=none;fillColor=none;align=center;verticalAlign=middle;whiteSpace=wrap;rounded=0;" vertex="1" parent="WIyWlLk6GJQsqaUBKTNV-1">
          <mxGeometry x="710" y="910" width="60" height="30" as="geometry" />
        </mxCell>
        <mxCell id="uf2t4lImcSSHD_paHzv8-56" value="get_details_img(file path)" style="rounded=1;whiteSpace=wrap;html=1;" vertex="1" parent="WIyWlLk6GJQsqaUBKTNV-1">
          <mxGeometry x="100" y="640" width="120" height="60" as="geometry" />
        </mxCell>
        <mxCell id="uf2t4lImcSSHD_paHzv8-59" value="" style="rounded=1;whiteSpace=wrap;html=1;" vertex="1" parent="WIyWlLk6GJQsqaUBKTNV-1">
          <mxGeometry x="550" y="1169" width="120" height="60" as="geometry" />
        </mxCell>
      </root>
    </mxGraphModel>
  </diagram>
</mxfile>
